<svg width="12" height="12" viewBox="0 0 12 12" fill="none" xmlns="http://www.w3.org/2000/svg">
<path d="M9.36006 1.01422C9.0358 0.905414 8.69475 0.857234 8.35316 0.857234C7.60068 0.85182 6.8704 1.10084 6.26896 1.56045C6.22024 1.52309 6.16069 1.49007 6.10656 1.45813C6.05242 1.42511 5.95498 1.34445 5.87378 1.30114L5.66807 1.20911C5.5598 1.14956 5.44666 1.10625 5.32702 1.06782C5.31619 1.05753 5.29995 1.04616 5.2783 1.03588H5.24636C4.92642 0.927068 4.5962 0.867519 4.25515 0.857234H4.1956C4.04402 0.857234 3.89298 0.867519 3.74087 0.889715H3.6759C3.5135 0.910827 3.35164 0.948722 3.19465 1.00286C1.17487 1.66384 0.45488 3.85631 1.0666 5.77268C1.41307 6.75198 1.9712 7.64033 2.6966 8.37061C3.75169 9.38835 4.90531 10.287 6.14445 11.0557L6.2852 11.1429L6.42054 11.0611C7.65536 10.287 8.80248 9.38835 9.84782 8.37603C10.5781 7.64575 11.1357 6.75198 11.4767 5.77268C12.0782 3.85631 11.3582 1.66384 9.36006 1.01422Z" fill="#EC5655"/>
</svg>
